<svg width="360" height="406" fill="none" xmlns="http://www.w3.org/2000/svg"><path d="M141.896 272.093c-1.673-.487-3.426.602-5.303.788-.115.009-.212.115-.319.177-1.221.699-2.488 1.337-3.665 2.116-1.098.726-1.895 1.788-2.789 2.744-.903.965-1.957 1.789-2.762 2.825-.868 1.115-1.496 2.408-2.267 3.594-1.841 2.842-3.382 5.87-5.188 8.712-1.593 2.497-2.851 5.162-4.267 7.738-.602 1.098-1.355 2.072-2.028 3.108-.31.478-.664.973-.726 1.469-.097.788-.487 1.479-.885 2.001-1.062 1.399-1.549 3.081-2.444 4.533-.885 1.434-2.045 2.7-2.895 4.152-1.868 3.205-4.108 6.118-6.303 9.093-1.55 2.107-2.984 4.267-4.905 6.073-.629.594-1.16 1.346-1.567 2.107-.292.541-.664 1.019-1.125 1.293-1.372.806-2.328 2.036-3.444 3.117-.478.46-.938.717-1.646.832-1.284.212-2.276 1.16-3.382 1.824-.222.132-.416.495-.585.478-1.221-.177-1.983.646-2.877 1.204-.416.256-.93.389-1.275.708-.478.443-.637-.336-1.124-.142-1.603.62-3.276 1.027-4.94 1.435-.55.832-1.47.106-2.152.54-.93.584-2.072-.045-3.019.327-.947.372-1.797.514-2.691-.053-.505-.319-.85.85-1.532.124-.319-.336-1.071-.381-1.576.124-.097.097-.398.133-.514.053-1.92-1.275-4.32-.956-6.33-1.912-.16-.08-.345-.062-.531-.151-3.019-1.469-6.074-2.851-9.057-4.364-2.045-1.036-3.887-2.426-5.764-3.746-3.001-2.116-5.887-4.382-8.286-7.162-2.125-2.461-4.294-4.931-5.755-7.888-.31-.62-.903-.903-1.213-1.47-.797-1.452-1.576-2.913-2.435-4.329-.398-.647-.62-1.32-.841-2.028-.496-1.576-1.266-3.046-2.098-4.462-.638-1.08-.815-2.302-1.328-3.409-.098-.221.088-.584-.036-.77-.407-.664 1.045-1.23.071-1.886.133-.726-.478-1.257-.522-1.983-.018-.336-.319-.761-.346-1.222-.044-1.009.195-2.027-.336-3.028-.186-.354-.212-1 .106-1.496.496-.77.142-1.647.248-2.47-.832-.646.044-1.797-.735-2.47-.07-.062-.097-.274-.053-.363.717-1.213.38-2.408.018-3.639-.115-.389-.23-.965.124-1.301.54-.514-.354-.638-.204-1.142.177-.62.098-1.328-.274-2.028-.23-.434-.24-1.204.257-1.824.469-.584.495-1.39.486-2.169 0-.938-.132-1.868.328-2.824.372-.753-.106-1.709.38-2.612.328-.611.063-1.549.063-2.337 0-.761.017-1.479.372-2.222.566-1.187.85-2.435.894-3.807.026-.894.54-1.886.92-2.754.487-1.106.877-2.266 1.514-3.346.647-1.089 1.125-2.435 1.417-3.745.186-.85.337-1.709.823-2.426.505-.753.293-1.682.762-2.461.735-1.196 1.505-2.4 1.709-3.834 1.248-1.47 1.363-3.612 2.912-4.94.416-.363.709-1.08.815-1.612.257-1.292.991-2.284 1.762-3.222.62-.762.602-1.736 1.195-2.497.522-.673 1.266-1.169 1.55-2.08.38-1.249 1-2.355 1.894-3.391.797-.93.93-2.426 1.69-3.409.718-.921 1.055-1.965 1.639-2.886.62-.974 1.717-1.638 2.443-2.568a34.501 34.501 0 0 0 2.993-4.48c.3-.54.593-1.088 1.062-1.549.992-.974 2.196-1.806 2.532-3.293.886-.594 1.222-1.745 2.223-2.205.522-.239.292-1.036 1.08-1.169.478-.079.92-.726 1.248-1.212.24-.346.434-.594.815-.842.69-.433 1.204-1.115 1.584-1.885.133-.275.071-.611.39-.833 1.558-1.089 2.266-2.904 3.541-4.187.877-.877 1.426-2.222 2.816-2.577.194-.053.363-.354.487-.575.372-.682.495-1.434 1.425-1.806.47-.186.744-1.098.92-1.727.125-.433.373-.673.665-.894 1.921-1.443 3.09-2.169 3.71-4.772.088-.372.389-.505.584-.744.655-.788 1.416-1.443 2.01-2.319.628-.93 1.416-1.727 1.947-2.762.337-.647.859-1.284 1.585-1.709.47-.275 1-.487 1.434-.903.328-.328.133-1.08.903-1.045.301.009.222-.389.248-.637.098-1.142.611-1.93 1.647-2.541.85-.505 1.54-1.266 2.045-2.223.753-1.407 1.744-2.682 2.532-4.081.407-.717.434-1.567.939-2.187.496-.62.84-1.266.735-2.072-.054-.433.31-.867.442-.973.647-.54.664-1.346 1.045-1.975.7-1.16 1.08-2.408.894-3.78-.027-.195-.08-.523.009-.576 1.363-.761.416-2.284 1.124-3.32.487-.708-.451-1.726.045-2.603-.815-.602-.24-1.549-.585-2.328-.673-1.541-1.832-2.612-3.01-3.674-.416-.372-1.124-.452-1.709-.611-1.78-.478-3.585-.877-5.347-1.417-.39-.115-.761-.062-1.107-.186-.637-.23-1.168.461-1.886.08-.53-.283-1.204-.027-1.797.301-.3.168-.779.053-1.168.027-1.16-.071-2.196.132-3.259.743-1.089.629-2.39 1.01-3.638 1.187-1.187.168-2.178.938-3.427.885-.336-.018-.672.54-1.062.744a22.74 22.74 0 0 0-5.994 4.542c-2.178 2.31-4.78 4.125-7.083 6.286-2.16.849-3.435 2.921-5.48 3.939-.451.222-.77.709-1.124 1.098-1.39 1.523-2.957 2.842-4.72 3.896-.955.575-1.708 1.345-2.487 2.107-.629.62-1.186 1.337-2.16 1.478-.16.027-.284.266-.452.328-1.036.372-1.709 1.354-2.966 1.47-.974.088-1.868.982-2.85 1.133-1.09.168-2.178 1.248-3.365.23-.115-.097-.38-.009-.584-.018-3.922-.194-7.72-1.407-10.925-3.683-1.55-1.106-3.25-2.089-4.418-3.63-1.107-1.452-2.462-2.656-3.621-4.037-.656-.779-1.302-1.717-1.151-2.868.159-1.213-.62-2.152-1.045-3.126-.514-1.168-.576-2.399-.868-3.585-.124-.514-.575-1.125-.124-1.86.328-.522-.168-1.398.434-1.992.062-.062-.026-.265.018-.38.283-.762-.939-1.381-.097-2.302.513-.558-.31-1.665.46-2.355-.726-.708-.531-1.7-.301-2.373.39-1.151.522-2.382 1.071-3.506.478-.974.576-2.134.832-3.205.372-1.549.69-3.116 1.4-4.559.123-.248.185-.461.185-.718-.035-1.044.505-1.912.939-2.771 1.31-2.62 2.514-5.285 3.426-8.074.07-.23.239-.434.39-.629 1.097-1.434 1.549-3.187 2.32-4.772.69-1.425 1.38-2.859 2.07-4.276.665-1.372 1.55-2.665 2.276-4.011 1.762-3.24 3.87-6.224 6.118-9.127 1.381-1.78 2.62-3.657 3.93-5.48.08-.107.178-.195.275-.284 1.975-1.718 3.497-3.843 5.268-5.746 1.585-1.709 3.152-3.444 4.799-5.108 2.7-2.727 5.648-5.162 8.862-7.251 1.186-.77 2.55-1.284 3.603-2.267.992-.92 2.355-1.443 2.975-2.762 1.603-.965 2.639-2.745 4.622-3.17a.588.588 0 0 0 .31-.186c1.38-1.62 3.435-1.894 5.276-2.54 1.346-.47 2.727-.983 4.206-.815.416.044.708-.257 1.035-.354.833-.24 1.47-.974 2.4-.895 1.363-.973 3.028-1.283 4.48-2.08 1.027-.567 2.124-.894 3.328-1.062 1.824-.257 3.586-.842 5.366-1.355.23-.07.46-.221.708-.177 1.567.266 3.099-.221 4.568-.487 2.559-.46 5.242-.363 7.667-1.487.16-.08.39.008.585-.018.628-.08 1.168.788 1.762.3.672-.548 1.38-.203 2.063-.282.646-.08 1.319-.01 1.974-.018.31 0 .637.08.894-.23.301-.346.832-.275 1.098-.133 1.239.655 2.541.265 3.807.354.363.027.717.062 1.089-.239.381-.31 1.098-.345 1.416.053.62.761 1.382.593 2.143.593 1.797-.009 3.55.682 5.374.399.735.53 1.594.469 2.399.372.868-.098 1.629.3 2.391.486 1.62.381 3.302.514 4.887 1.054.239.08.522.106.761.053.771-.15 1.355.292 1.895.673.726.505 1.567.894 2.089 1.656.753-.399 1.497.008 2.214.097.637.07 1.319.398 1.815.806 1.46 1.186 3.249 1.425 4.958 1.877.557.15 1.089.345 1.514.637 1.549 1.071 2.496 1.558 4.214 1.744.478.053.823.337 1.177.514 1.532.77 3.046 1.523 4.737 1.965 1.151.301 2.275.947 3.24 1.673.664.496 1.373.877 2.09 1.187 1.009.425 1.638 1.416 2.594 1.762 1.16.425 1.824 1.354 2.744 1.992 1.134.779 2.178 1.655 2.993 2.718.549.708 1.053 1.443 1.726 2.036 1.612 1.417 3.161 2.93 5.064 3.993.275.15.567.372.718.637.947 1.656 2.7 2.497 3.904 3.887 1.151 1.32 2.638 2.329 3.577 3.851.85 1.373 1.93 2.656 2.629 4.055 1.027 2.054 2.4 3.984 2.94 6.295.07.292.318.655.495.974 1.824 3.338 3.037 6.914 4.223 10.509.417 1.275.983 2.497 1.355 3.789.443 1.532.797 3.09 1.7 4.436.328.496-.221 1.204.416 1.611-.248 1.39.753 2.47.93 3.781.159 1.213.487 2.434.805 3.612.567 2.08.886 4.214 1.443 6.304.284 1.062.647 2.133.824 3.222.186 1.178.531 2.293.779 3.435.239 1.089.593 2.152.788 3.232.124.673.575 1.301.443 1.992-.142.69.504 1.195.389 1.815-.133.761.567 1.257.505 2.001-.018.186.345.487.31.841a4.657 4.657 0 0 0 .646 2.886c.39.655-.239 1.452.398 2.01.115 2.01 1.266 3.701 1.789 5.595.496 1.797 1.204 3.577 2.222 5.206.274.434.487.992.894 1.169.992.451 1.576 1.31 2.337 1.992.487.442.939.929 1.399 1.39.886-.363 1.151.77 1.851.77.646 0 1.204.345 1.788.496.753.195 1.47.31 2.231.31.708.008 1.461.132 1.913-.647.044-.079.221-.088.327-.141 1.222-.567 2.488-.965 3.63-1.771 1.054-.744 1.957-1.744 3.223-2.205.283-.106.478-.424.717-.646.876-.823 1.753-1.567 2.833-2.187 1.186-.681 2.222-1.823 2.992-3.045.213-.337.408-.7.709-.868 1.558-.894 2.55-2.39 3.895-3.497.664-.549.912-1.381 1.523-1.948 1.629-1.505 3.329-2.895 5.268-3.984 1.204-.682 2.125-1.655 2.851-2.798.212-.336.451-.699.743-.849 1.063-.549 1.762-1.311 2.081-2.488.168-.611.894-.709 1.372-.948 1.7-.841 3.055-2.009 4.285-3.47.965-1.142 2.284-2.01 3.533-2.869.947-.646 2.054-1.071 3.081-1.611 1.053-.549 1.965-1.346 2.886-2.054.983-.753 2.045-1.142 3.161-1.479.327-.097.566-.345.823-.389.806-.142 1.116-1.045 1.904-1.151a4.55 4.55 0 0 0 2.045-.815c1.186-.841 2.735-.699 4.01-1.266.753-.336 1.479-.442 2.223-.336 1.062.15 2.027-.319 2.983-.514 1.018-.203 2.037-.106 3.01-.327 2.834-.655 5.693-.292 8.544-.354 2.895-.062 5.799.071 8.694-.053 1.195-.054 2.24.61 3.391.425 1.116-.169 2.125.309 3.196.389.301.027.443.23.655.337 1.665.796 3.444 1.283 5.25 1.637.275.054.478.133.656.328.486.531 1.159.655 1.806.903 1.195.452 2.302 1.098 3.585 1.372 1.266.275 2.134 1.426 3.4 1.815.39.124.664.62.992.948.186.186.416.566.549.531 1.62-.39 2.133 1.461 3.488 1.673.797.124.77 1.257 1.416 1.709.16.115.036.496.293.655.796.505 1.788.815 2.133 1.815.346.992 1.249 1.47 1.886 2.187.974 1.098 2.151 1.965 3.417 2.7.222.124.576.399.541.514-.133.442.628.584.283 1.115-.283.434.265.664.54.708.54.089.744.514 1.045.824 1.035 1.089 1.664 2.435 2.186 3.833-.575 1.063.178 1.665.806 2.302.133.142.372.301.363.434-.097 1.222.602 2.125 1.169 3.081a.334.334 0 0 1 .026.186c-.283 1.541.691 2.745 1.072 4.099.256.894.371 1.833.495 2.762.08.602-.106 1.24.319 1.771-.85.611.283 1.08.115 1.691-.168.646.354 1.151.673 1.682-.602.452.46 1.001-.115 1.541-.372.345-.39 1.115-.035 1.408.876.726.699 1.761.982 2.647.177.584-.062 1.283.452 1.788-.567.62.071 1.222.035 1.851-.035.602.257 1.221.425 1.797.363 1.275.31 2.532.337 3.807.008.31.026.593.186.912.407.832.371 1.797.053 2.62-.204.532-.372.921.026 1.364.16.177.186.442.098.531-.717.655-.408 1.514-.337 2.222.177 1.771-.646 3.426-.425 5.179.071.549-.265 1.196.337 1.638-.416.39-.372.903-.328 1.39.08 1.036-.567 1.93-.434 3.002.133 1.036.23 2.16-.026 3.143-.23.885-.425 1.744-.31 2.611.124.886-.345 1.594-.452 2.409-.168 1.283-.92 2.443-.85 3.789-.54.389-.283.965-.292 1.452-.018.912-.327 1.709-.832 2.426-.186.265-.283.531-.39.832-.46 1.257-1.018 2.479-1.558 3.701-.54 1.23-.779 2.62-1.815 3.594-.345 1.842-1.956 3.125-2.16 5.047-.053.451-.381.894-.637 1.31-1.001 1.629-1.727 3.426-2.958 4.896-.345.416-.177.885-.407 1.222-.735 1.071-1.151 2.31-2.036 3.337-.788.912-1.461 2.028-1.948 3.126-.699 1.576-1.974 2.682-2.806 4.161-.806 1.434-1.913 2.789-2.772 4.214-1.088 1.797-2.363 3.48-3.444 5.277-.557.921-1.522 1.505-2.124 2.47-.771 1.239-1.877 2.284-2.895 3.355-.664.691-1.337 1.355-1.665 2.285-.044.115-.071.247-.142.336-2.062 2.373-3.621 5.135-5.613 7.552a45.087 45.087 0 0 0-4.913 7.269c-1.328.974-1.727 2.647-2.887 3.745-1.018.965-1.637 2.24-2.443 3.355-.7.965-1.532 1.824-2.222 2.798-1.47 2.089-3.205 4.002-4.941 5.896-1.239 1.355-2.425 2.833-2.939 4.693-.15.54-.611.965-.921 1.381a12.845 12.845 0 0 0-2.257 4.621c-.151.567-.514 1.107-.806 1.638-1.045 1.93-1.992 3.86-1.939 6.118-.699 1.275-.531 2.78-1.098 4.09-.071.168-.071.372-.088.558-.089.806.088 1.603-.337 2.435-.336.673.151 1.646-.451 2.381-.036.036-.009.133 0 .195.248 2.01-.647 3.949-.399 5.967.169 1.355-.557 2.612-.425 3.993.124 1.302.231 2.674-.017 3.94-.399 2.063-.611 4.117-.833 6.197-.15 1.399-.062 2.842-.363 4.179-.416 1.868-.239 3.728-.363 5.578-.062.868-.469 1.682-.398 2.603.071.876.044 1.735-.319 2.621-.292.708-.194 1.584-.372 2.399-.15.717-.743 1.399-.469 2.187.257.761-.531 1.496-.035 2.257-.54.797-.399 1.789-.779 2.621-.381.841-.505 1.788-.903 2.594-.434.885-.186 1.824-.638 2.709-1.682 3.294-3.621 6.428-5.613 9.535-.239.381-.637.664-.965.983-1.071 1.071-2.169 2.125-3.214 3.223-1.894 2.001-4.232 3.426-6.41 5.055-.088.071-.274.036-.345.115-1.346 1.594-3.311 2.143-5.038 3.117-1.452.823-2.895 1.54-4.479 2.098-1.541.54-2.993 1.328-4.569 1.877-1.487.513-2.992 1.036-4.453 1.638-.7.283-1.434.248-2.134.584-.602.283-1.452.372-2.16.54-2.187.531-4.382.62-6.605.806-1.328.106-2.656.336-3.993.292-.451-.018-.664.345-1.027.416-.416.08-.566-.558-1.027-.398-.062.017-.132-.018-.194.008-.505.178-.939.691-1.559.248-.522-.371-.929.363-1.522.177-.54-.168-1.178-.008-1.771-.044-1.071-.053-2.081-.602-3.196-.398-.443.079-1.045-.106-1.319.124-.576.504-.833-.337-1.328-.151-.408.151-.93-.044-1.373.044-1 .213-1.806-.522-2.806-.46-.921.062-1.957.407-2.798-.345-1.753.274-3.302-.753-5.011-.815-.726-.026-1.505-.194-2.143-.531-.389-.204-.726-.212-1.089-.23-1.062-.053-4.825-1.151-6.073-1.558-1.797-.593-3.373-1.744-5.294-2.028-.452-.071-.895-.434-1.258-.752-.752-.673-1.469-1.311-2.452-1.736-.77-.327-1.363-1.097-2.328-1.053-1.815-1.293-4.038-1.983-5.596-3.648-.451-.487-1.009-.788-1.549-1.053-.779-.381-1.576-.567-1.921-1.55-.204-.584-1.063-.593-1.497-1.115-.628-.762-1.496-1.328-2.045-2.134-.54-.797-1.408-1.169-1.974-1.903-1.195-1.532-2.399-3.055-3.382-4.737-1.116-1.904-2.355-3.71-3.878-5.312-.133-.142-.345-.257-.407-.425-.709-1.886-2.222-3.302-3.019-5.073-.602-1.328-1.311-2.612-1.806-3.993-.788-2.196-1.656-4.365-1.975-6.693-1.062-1.505-1.08-3.373-1.77-5.002a2.426 2.426 0 0 1-.204-.903c-.027-.824-.071-1.603-.345-2.426-.363-1.063-.62-2.205-.461-3.382.045-.301.08-.62-.212-.903-.381-.363.053-1.054-.204-1.266-.566-.47-.026-.762.044-1.089.186-.815-.548-1.399-.433-2.214.106-.77.23-1.682-.089-2.319-.292-.594-.186-1.116-.274-1.674-.018-.133-.009-.265 0-.398.292-4.896-.585-9.774-.355-14.662.045-.841-.832-1.027-.805-1.646.026-.549.735-.974.549-1.567-.204-.647-.275-1.134.124-1.78.265-.425.079-1.142.088-1.735.009-1.187-.168-2.408.053-3.55.195-1.01.107-2.125.735-3.046.027-.044 0-.133.009-.195.035-.761-.868-1.576-.319-2.151.7-.726.47-1.576.779-2.276.346-.779.08-1.567.372-2.222.39-.876.337-1.735.354-2.62 0-.133-.053-.319.009-.39 1.426-1.487.638-3.603 1.461-5.259.027-.053-.292-.248-.053-.558.54-.681.93-1.974.956-2.762.009-.266-.08-.558.018-.788.363-.841.876-1.629 1.142-2.488.274-.894-.328-1.947.416-2.797-.221-1.452.487-2.993-.39-4.383.47-1.239-.743-1.673-1.195-2.47-.407-.726-.814-1.417-1.584-1.904-.992-.619-1.984-1.239-2.993-1.841-1-.593-2.125-.575-3.152-1-.823-.355-1.921-.08-3.205-.08zM315.07 70.269c-.487-1.647-.699-3.355-1.222-5.029-.566-1.823-1.487-3.47-2.098-5.267-.23-.665-1.045-1.054-1.363-1.807-.833-1.939-1.913-3.71-3.71-4.966-.823-.576-1.328-1.576-2.603-1.426-.372.044-.823-.496-1.222-.788-.309-.23-.557-.549-.885-.717-1.461-.761-2.913-1.55-4.427-2.187-1.576-.655-3.196-1.195-4.834-1.673-.664-.195-1.416-.08-2.133-.115-.124-.009-.257-.018-.372-.062-1.895-.735-3.86-.142-5.79-.337-.709.682-1.629.195-2.4.425-.867.257-1.708.416-2.611.372-1.027-.053-1.913.487-2.887.655-.876.15-1.735.478-2.346.983-.646.54-1.363.106-1.974.558-.886.655-1.939 1.08-2.816 1.77-1.106.868-2.16 1.824-3.16 2.79a9.163 9.163 0 0 0-2.152 3.222c-.132.345-.212.717-.557.956-.753.54-1.16 1.39-1.355 2.196-.452 1.86-2.01 3.32-1.859 5.365-.894 1.656-1.195 3.55-1.381 5.321-.186 1.77-.434 3.56-.523 5.356-.079 1.435.328 2.79.416 4.188.053.753.771 3.515 1.187 4.453 1.381 3.073 2.877 6.092 4.754 8.89.877 1.3 1.682 2.744 2.86 3.718 1.434 1.195 2.851 2.443 4.471 3.444 1.31.805 2.673 1.514 3.993 2.293 2.434.133 4.541 1.744 7.047 1.585.593.708 1.523.389 2.275.726.718.318 1.683.044 2.541.079.496.018 1.063-.239 1.443.319 1.328-.035 2.621.212 3.993-.221 1.984-.638 3.967-1.32 6.03-1.674.185-.035.363-.017.522-.186 1.177-1.257 3.116-1.434 4.126-2.93.168-.257.451-.372.788-.478.761-.24 1.381-.815 2.036-1.257.832-.567 1.797-1.266 2.107-2.25.301-.955.921-1.61 1.425-2.38.682-1.028 1.311-2.064 1.824-3.197.779-1.682 1.47-3.373 1.78-5.188.168-.992.867-1.877.876-2.771.027-1.62.7-3.143.487-4.781-.106-.841-.017-1.709-.017-2.984-.31-1.363.247-3.16-.284-4.993zm15.317 240.478c.248-1.381-.266-2.682-.496-3.975-.248-1.399-.983-2.754-1.824-3.966a251.731 251.731 0 0 0-3.771-5.348c-.806-1.107-2.214-1.558-3.037-2.656-.239-.319-.602-.159-.912-.186-1.372-.088-2.816.319-4.046-.761-.222-.195-.877-.177-1.293.097-.124.08-.15.221-.425.124-1.664-.575-3.152-.266-4.586.841-.434.337-.921.655-1.319 1.045-.443.442-1.133.009-1.576.584-.15.195-.327.363-.487.62a113.71 113.71 0 0 1-3.338 5.33c-.283.434-.433.885-.646 1.31-.575 1.186-.637 2.497-1.124 3.683-.257.62-.62 1.204-.771 1.85-.566 2.471-1.124 4.95-1.558 7.446-.088.514-.513.859-.451 1.408.053.513.124 1.089-.053 1.549-.514 1.381-.408 2.842-.709 4.241-.124.567.053 1.186-.035 1.771-.106.681.451 1.124.451 1.815.009 1.877.638 3.621 1.532 5.276.921 1.7 2.125 2.975 3.904 3.878 1.948.992 4.02.797 6.03 1.178.549.106 1.124-.284 1.735-.239.204.017.451-.337.814-.372 1.984-.204 3.56-1.585 5.498-1.983.266-.053.487-.425.709-.664.611-.673 1.487-1.089 1.93-1.93 1.531-.611 2.399-2.054 3.665-3.002 1.337-.991 2.692-2.142 3.32-3.904.257-.717.638-1.452.983-2.152.319-.664.071-1.301.31-1.85.265-.611.921-.991.814-1.868-.053-.443.585-.93.7-1.452.124-.531-.673-1.018-.346-1.594.443-.779.363-1.593.372-2.417.009-.655 0-1.319 0-1.974.018-.567-.071-1.177.036-1.753zM5.836 249.764c.248 1.948 1.124 3.666 2.612 5.029.363.328.61.399.965.018.788-.824 1.399-1.789 1.877-2.78 1-2.081 1.903-4.214 2.78-6.357.7-1.709 1.815-3.187 2.594-4.852.407-.885.708-1.815 1.133-2.691.558-1.16.903-2.408 1.46-3.541.86-1.753 1.382-3.666 2.56-5.268.424-.576.69-1.293.938-1.975.106-.283.053-.602.328-.858 1.142-1.098 1.7-2.577 2.46-3.914.364-.637.647-1.319 1.046-1.939 1.345-2.08 2.77-4.116 4.081-6.215.92-1.478 1.727-3.045 2.913-4.311 1.956-2.072 3.32-4.542 4.852-6.897 1.053-1.612 2.053-3.258 3.231-4.781 1.045-1.355 2.205-2.656 3.152-4.046 1.682-2.461 3.47-4.852 5.09-7.357.204-.31.16-.762.558-.957 1.364-.672 1.55-2.363 2.754-3.169.61-1.585 1.744-2.842 2.682-4.223.806-1.178 1.151-2.577 2.019-3.727.204-.266.177-.797.407-1.205.213-.371-.62-1.133-.947-.876-.708.558-1.63.505-2.346 1.062-1.558 1.222-3.205 2.311-4.55 3.79-1.612 1.779-3.436 3.337-4.932 5.259-1.284 1.646-2.913 3.036-4.436 4.497-1.576 1.514-2.921 3.214-4.179 4.994-.38.548-.584 1.239-1 1.753-1.585 1.947-3.037 3.992-4.471 6.055-1.673 2.417-3.33 4.852-5.162 7.154-1.629 2.045-2.913 4.32-4.311 6.516-.868 1.364-1.771 2.692-2.648 4.046-.858 1.328-1.47 2.816-2.284 4.179-.248.416-.673.744-.814 1.248-.478 1.718-1.47 3.214-2.214 4.817-.823 1.77-1.629 3.576-2.718 5.188-1.044 1.54-1.815 3.214-2.727 4.807-.938 1.638-1.93 3.285-2.355 5.135-.31 1.319-.965 2.577-.858 4.161-.39.726.363 1.417.46 2.231zM192.467.211c-1.089.86-2.408 1.355-3.346 2.47-1.036 1.231-2.355 2.232-3.161 3.64-.877 1.54-1.965 3.072-1.806 4.94.044.584-.824 1.098-.071 1.646-.903.39.301 1.204-.345 1.727-.16.133-.009.806.141 1.257.443 1.399 1.479 2.408 2.134 3.665.735 1.408 2.32 1.7 3.444 2.594.372.293 1.054-.017 1.62.381.399.275 1.231-.124 1.718.098.549.256 1.08.256 1.629.371.708.142 1.169-.487 1.815-.416 1.487.16 2.833-.327 4.223-.77 2.134-.682 3.86-1.93 5.179-3.648.771-1 1.213-2.266 1.373-3.559.053-.451.115-.956-.018-1.372-.133-.416.814-.69.08-1.08.849-1.018.088-2.019-.071-3.002-.071-.469-.319-.911-.425-1.407-.168-.744-.399-1.505-.886-2.205-.371-.53-1.044-.69-1.257-1.204-.257-.637-.655-1.142-1.16-1.478-1.372-.921-2.62-2.045-4.488-2.08-.682-.019-1.629-.054-2.161-.39-.788-.496-1.522-.142-2.204-.355-.691.107-1.434-.239-1.957.177zm-78.38 388.509c-.115.752.549 1.31.399 2.009-.151.7.265 1.231.451 1.807.877 2.762 1.567 4.302 3.878 5.852 1.381.929 3.055.858 4.542 1.416.629-.726 1.47-.38 2.205-.372 1.62.027 3.116-.513 4.409-1.266 1.664-.974 3.488-1.797 4.648-3.568.646-.991 1.301-1.921 1.673-3.063.204-.611.124-1.461.425-1.762.691-.681-.133-1.328.159-1.806.381-.62-.274-1.293-.088-1.461.752-.673-.345-1.009-.177-1.54.044-.133-.284-.345-.381-.611-.567-1.62-1.443-3.09-2.807-4.152-1.407-1.089-2.939-2.001-4.612-2.674-2.373-.947-4.781-1.541-7.287-.638-1.31.47-2.78.496-3.904 1.541-1.16 1.08-2.435 2.019-2.718 3.718-.806.47-.248 1.399-.708 2.09-.39.602-.08 1.655-.08 2.514 0 .655.08 1.328-.027 1.966zm244.622-169.102c-.168-.752-.823-.566-1.479.045-1.177 1.089-1.151 2.603-1.505 3.931-.69 2.549-1.514 5.037-2.665 7.401-.965 1.974-2.062 3.887-3.054 5.852-.788 1.576-1.487 3.205-2.24 4.799-.363.77-.903 1.478-1.16 2.284-.602 1.895-1.629 3.55-2.567 5.268-.602 1.098-1.452 2.001-2.01 3.116-1.186 2.355-2.922 4.338-4.453 6.463-.912 1.266-2.143 2.258-3.046 3.489-1.788 2.452-3.816 4.71-5.657 7.118-1.337 1.744-2.302 3.638-3.179 5.613-.221.504.195 1.168-.407 1.629-.186.141 0 .451.204.664.434.434.805.425 1.363.141 1.417-.708 2.692-1.584 3.825-2.682.567-.549 1.036-1.257 1.7-1.638.69-.398 1.222-.903 1.77-1.434.567-.549 1.311-1.027 1.63-1.7.362-.77 1.283-.77 1.558-1.487.301-.806 1.018-1.275 1.54-1.886.629-.726 1.16-1.541 1.824-2.205.877-.867 1.514-1.912 2.293-2.842.779-.921 1.319-2.089 2.045-3.072.824-1.107 1.39-2.382 2.24-3.417.974-1.169 1.62-2.515 2.426-3.763.921-1.426 1.567-3.028 2.266-4.586.647-1.443 1.523-2.789 1.966-4.33.257-.885.398-1.806.717-2.664.646-1.771 1.514-3.48 2.019-5.286.221-.77.965-1.266.938-1.974-.062-1.948 1.319-3.471 1.39-5.383.044-1.231.717-2.4.611-3.683.23-1.381-.62-2.515-.903-3.781zM19.223 183.514c-.027-1.036-.682-1.842-1.638-2.258-.523-.221-1.054.036-1.532-.133-.47-.168-.744.514-1.142.231-.522-.372-.859-.116-1.372.097-2.7 1.124-4.578 3.17-6.145 5.489-1.39 2.072-1.629 4.312-1.673 6.711-.027 1.496.637 2.585 1.399 3.586 1.018 1.328 2.32 2.31 4.24 2.125 1.842-.178 3.214-1.196 4.649-2.161 1.965-1.319 2.293-3.568 2.735-5.569.381-1.708.868-3.523.479-5.028.008-1.24.026-2.169 0-3.09zM156.203 389.1c-.584-.584-1.248-1.053-1.903-1.549-1.443-1.089-3.568-1.284-4.887.425-.894 1.16-.965 2.497-1.293 3.798.523.664.168 1.532.452 2.169.336.762.504 1.824 1.523 2.072 1.053.257 2.133.788 3.222-.009.337-.248.744-.416 1.142-.549 1.718-.593 2.763-2.027 2.754-3.825.088-1.018-.301-1.832-1.01-2.532zM235.61 18.928c-.23-.452-.336-1.045-.903-1.063-.602-.017-1.319-.31-1.797.381-.434.62-.859.434-1.222-.07-.265-.364-.504-.302-.699.026-.602 1.018-1.01 2.054-1.089 3.311-.106 1.709.23 2.665 1.682 3.311.451.204.992-.08 1.301.16.744.548 1.311.203 2.072.061.921-.168 1.284-.788 1.877-1.239.336-.257.089-.398-.089-.558-.053-1.797-.318-2.691-1.133-4.32z" fill="#F5F5F5"/></svg>