<svg width="414" height="453" fill="none" xmlns="http://www.w3.org/2000/svg"><path fill-rule="evenodd" clip-rule="evenodd" d="M144.809.701c-.8.97-1.948 3.587-1.948 4.442 0 1.2.872 1.669 3.11 1.669 2.96 0 3.852-.53 3.538-2.102C149.233 3.327 146.683 0 145.9 0c-.282 0-.772.316-1.091.701zm-51.18 29.607c-1.37 1.742-.923 2.55 1.413 2.55 1.276 0 2.045-1.526 1.388-2.754-.62-1.158-1.8-1.072-2.802.204zm28.288 3.92c-1.214.819-1.929 2.328-1.578 3.33.312.887 2.761 2.112 4.223 2.112 2.347 0 3.455-2.651 2.169-5.193-.667-1.318-3.045-1.441-4.814-.249zm-31.864 17.48c-3.97 1.096-6.415 2.397-8.8 4.683-1.098 1.051-2.606 2.392-3.352 2.98-.839.66-2.035 2.417-3.138 4.608-.981 1.947-2.072 3.991-2.425 4.542-.859 1.342-1.568 5.145-1.563 8.382.006 3.725 1.059 13.209 1.771 15.954 1.012 3.901 5.098 13.208 7.524 17.137.68 1.102 1.629 2.635 2.108 3.406 1.825 2.939 3.86 6.422 4.955 8.481.626 1.176 1.7 3.04 2.388 4.142a83.106 83.106 0 0 1 2.236 3.838c.965 1.797 6.92 9.011 10.066 12.194.873.884 2.489 2.675 3.591 3.98 2.894 3.429 27.03 27.441 30.979 30.821 1.84 1.574 4.106 3.402 5.037 4.064.931.661 3.23 2.554 5.109 4.207 3.795 3.338 5.947 5.062 7.625 6.108 1.213.754 13.528 12.831 13.528 13.265 0 .145.613.849 1.363 1.565.75.715 1.697 1.862 2.103 2.547 1.156 1.949 4.569 6.994 5.998 8.867 1.33 1.744 3.267 5.532 5.177 10.123 1.267 3.045 1.447 6.237.438 7.777-1.22 1.864-4.798 2.329-7.792 1.014-3.49-1.532-4.438-2.134-7.195-4.564-1.512-1.334-3.548-3.055-4.525-3.826-.976-.772-3.397-3.044-5.379-5.05-1.983-2.005-5.304-5.071-7.38-6.812-2.076-1.74-4.96-4.415-6.408-5.943-3.764-3.971-4.242-4.407-7.612-6.943-1.667-1.255-4.473-3.641-6.235-5.302-2.844-2.681-6.798-5.873-8.689-7.016-.365-.22-2.761-1.9-5.325-3.733-5.122-3.662-9.455-5.99-13.431-7.216-9.249-2.852-11.658-3.516-17.812-4.902-5.571-1.255-14.466-1.536-21.226-.67-5.77.739-8.06 1.287-8.905 2.133-.31.31-.722.564-.916.564-.825 0-5.46 4.34-7.813 7.318-2.663 3.369-4.825 7.362-6.018 11.114-.386 1.212-.833 2.385-.994 2.605-.162.22-.502 1.663-.757 3.206-.542 3.279.007 13.3.944 17.23 1.469 6.159 4.195 14.234 5.209 15.427.28.331 1.244 1.996 2.141 3.7l1.63 3.099-1.133.808c-.624.445-1.223.808-1.332.808-.11 0-1.253.725-2.541 1.611a1016.58 1016.58 0 0 1-5.147 3.505c-1.542 1.043-3.029 2.076-3.303 2.297-3.272 2.627-4.15 3.434-5.231 4.809-.694.881-2.163 2.594-3.267 3.806-1.103 1.213-2.008 2.371-2.011 2.573-.003.204-.321.712-.707 1.131-.825.897-4.415 6.85-5.868 9.735-1.038 2.059-1.428 3.492-3.593 13.209-.751 3.372-1.191 9.104-1.199 15.627-.01 8.854 2.822 19.34 8.17 30.254 5.29 10.793 8.478 15.285 16.585 23.369 6.24 6.222 12.528 11.361 16.499 13.484 2.023 1.082 4.911 2.839 6.418 3.905 4.369 3.093 6.92 4.677 10.348 6.424 1.762.899 4.195 2.18 5.406 2.848 3.262 1.798 14.345 7.357 16.421 8.237 5.85 2.479 7.444 3.048 9.655 3.449 1.348.245 4.279 1.072 6.511 1.838 4.154 1.426 10.722 2.943 12.87 2.972.661.009 1.552.281 1.979.605.428.323 1.149.587 1.602.586.454-.001 1.636.263 2.627.586 3.265 1.066 9.36 2.236 12.416 2.383 1.652.079 4.085.351 5.406.605 1.322.253 4.386.456 6.809.452 2.423-.004 6.748.195 9.612.444 9.727.844 18.572.451 29.437-1.307 1.211-.196 3.104-.473 4.205-.616 1.101-.142 2.412-.525 2.911-.852.576-.375 1.409-.512 2.269-.373.853.139 1.633.014 2.095-.336.404-.307 1.288-.564 1.964-.57.676-.008 2.118-.268 3.204-.581 1.086-.312 2.749-.689 3.695-.839 1.732-.274 7.027-2.339 9.774-3.81.814-.437 1.77-.794 2.122-.794.353 0 1.276-.616 2.052-1.37.776-.754 1.996-1.649 2.713-1.989 1.823-.865 9.053-8.883 9.053-10.039 0-.167.335-.781.744-1.366 3.691-5.279 5.236-18.224 2.875-24.104-3.51-8.747-6.589-14.85-8.489-16.83a23.482 23.482 0 0 1-1.861-2.281c-.494-.703-1.228-1.383-1.631-1.511-.402-.127-1.05-.814-1.438-1.526-.388-.712-1.413-1.835-2.277-2.496a133.263 133.263 0 0 1-3.433-2.749c-1.024-.851-2.594-2.017-3.489-2.591-.894-.575-2.215-1.544-2.935-2.154-.72-.61-1.802-1.229-2.403-1.374-.602-.146-1.573-.599-2.157-1.008-.585-.409-1.189-.743-1.342-.743-.153 0-1.796-.721-3.651-1.603-1.854-.881-3.635-1.602-3.956-1.602-.322 0-1.265-.243-2.095-.54-3.673-1.312-4.383-1.554-5.515-1.883-3.621-1.054-9.021-3.158-10.454-4.075-2.545-1.628-6.094-6.361-6.459-8.615-.327-2.016.81-4.129 3.016-5.604 2.266-1.515 7.362-3.026 8.622-2.557.478.178 1.742.453 2.809.609 2.409.354 6.562 2.274 7.803 3.608.512.551 1.954 1.585 3.204 2.299 1.25.715 3.123 1.942 4.162 2.728 3.184 2.406 11.931 6.715 18.335 9.031 3.269 1.182 10.981 3.884 12.816 4.49.992.327 2.371.846 3.065 1.153.694.307 1.559.558 1.922.558s1.147.243 1.742.541c.595.298 2.343.837 3.885 1.198 6.346 1.488 8.085 1.867 8.56 1.867.274 0 1.297.61 2.272 1.355 1.27.97 2.654 1.548 4.882 2.039 1.71.376 3.83.918 4.711 1.204 4.455 1.444 12.864 2.029 28.236 1.965 12.341-.051 11.288.087 20.425-2.679 4.316-1.307 14.401-4.81 15.302-5.316 2.472-1.387 14.903-13.687 16.338-16.165.55-.951 1.271-2.027 1.602-2.391 2.247-2.476 3.61-8.018 3.591-14.603-.021-7.201-.432-9.293-2.749-13.972-2.011-4.062-6.248-10.061-8.106-11.476-1.57-1.196-3.985-2.297-7.154-3.263-1.652-.504-3.189-1.061-3.415-1.239-.225-.177-1.397-.444-2.603-.594-4.206-.521-8.803-2.278-10.389-3.97-.785-.838-.971-1.425-.909-2.867.103-2.354.955-3.505 5.233-7.07 5.875-4.895 9.953-8.82 11.378-10.95 1.566-2.343 3.625-7.288 4.489-10.786.651-2.631 1.457-8.636 1.212-9.031-.084-.137-.271-1.406-.416-2.821-.502-4.889-3.078-14.478-5.859-21.807a917.903 917.903 0 0 1-1.96-5.209c-1.473-3.978-4.86-12.444-5.37-13.424-.286-.551-1.728-3.513-3.203-6.582-1.476-3.069-3.45-6.856-4.387-8.415a308.2 308.2 0 0 1-3.181-5.439c-.812-1.433-2.738-4.318-4.279-6.412-1.542-2.093-4.168-5.88-5.836-8.414a604.295 604.295 0 0 0-4.268-6.412c-1.172-1.71-10.549-13.199-11.12-13.624-.148-.11-1.227-1.462-2.397-3.005-1.17-1.543-2.251-2.895-2.402-3.005-.453-.332-5.274-4.549-6.185-5.41-3.432-3.247-6.102-5.043-8.814-5.928-5.254-1.716-6.118-1.886-9.583-1.883-4.824.002-5.992.393-8.867 2.965-3.589 3.212-5.878 7.893-7.207 14.741-.628 3.232-.63 3.804-.036 7.886.712 4.884 1.843 8.058 4.797 13.468 2.041 3.735 5.728 9.467 6.974 10.842.698.77 1.626 2.051 2.998 4.141.38.578.872 1.322 1.094 1.653 1.669 2.487 2.532 3.917 4.572 7.579 2.075 3.728 2.371 4.552 2.77 7.711.418 3.316.395 3.605-.371 4.642-1.332 1.8-2.78 2.307-6.592 2.307-1.894 0-3.696-.195-4.005-.432-.309-.238-1.463-.762-2.564-1.165-1.852-.678-6.146-2.881-6.608-3.392-.111-.121-1.102-.667-2.203-1.214-2.817-1.397-10.373-5.668-10.614-6-.354-.488-6.27-4.972-9.012-6.831-1.463-.992-3.917-2.885-5.454-4.207-1.536-1.323-3.335-2.765-3.997-3.206-.662-.441-2.112-1.523-3.221-2.404-1.109-.882-2.537-1.893-3.173-2.249-.635-.355-1.866-1.257-2.734-2.003-.868-.747-2.769-2.169-4.224-3.161s-3.481-2.57-4.503-3.506c-1.021-.937-1.998-1.703-2.171-1.703-.173 0-1.075-.812-2.004-1.804-.929-.991-1.886-1.806-2.125-1.809-.24-.003-1.759-1.355-3.377-3.005-1.618-1.65-3.187-2.999-3.486-2.999-.298 0-1.785-1.218-3.303-2.705-6.099-5.975-9.994-9.64-11.935-11.226-1.123-.918-3.712-3.298-5.754-5.289-2.042-1.992-3.856-3.62-4.03-3.62-.322 0-4.663-3.407-5.396-4.235-.221-.248-2.293-1.957-4.606-3.798-4.414-3.512-5.134-4.122-7.534-6.384-3.845-3.623-8.835-7.83-12.58-10.604-8.829-6.542-12.346-9.04-12.729-9.04-.219 0-.399-.147-.399-.327 0-.31-4.44-3.57-9.2-6.756-1.205-.807-3.638-2.197-5.407-3.09-3.072-1.55-3.402-1.627-7.42-1.732-3.248-.085-4.876.075-7.15.703zm175.554.253c-1.935 1.3-2.089 1.518-2.409 3.412-.489 2.9 1.52 4.733 5.191 4.733 2.063 0 3.238-.799 3.834-2.607.611-1.851.194-3.555-1.282-5.236-1.51-1.72-3.089-1.81-5.334-.302zM52.353 64.892c-.81.527-.696 4.503.193 6.72.73 1.82 1.642 2.346 3.333 1.922 2.143-.538 2.516-1.608 1.648-4.734-.771-2.779-3.61-4.923-5.174-3.908zM49.7 90.522c-.686.418-1.634 1.305-2.108 1.971l-.862 1.21 1.034 4.94c1.167 5.579 3.567 11.301 7.101 16.934 5.025 8.009 5.81 8.911 8.997 10.327.937.417 2.598.863 3.691.993 5.264.624 6.922-2.939 4.571-9.823-1.925-5.639-3.936-9.275-10.452-18.9-3.192-4.716-3.72-5.345-5.77-6.888-2.343-1.76-4.195-1.989-6.202-.764zm319.444 24.405c0 1.356.902 2.713 1.541 2.318.983-.608.197-3.444-.954-3.444-.377 0-.587.404-.587 1.126zm-17.622 15.947c-3.279 1.807-5.387 3.807-6.715 6.368-.919 1.773-1.037 2.466-1.025 6.011.017 5.239 1.15 8.62 6.043 18.032 1.747 3.361 8.863 11.73 12.538 14.746 3.064 2.515 5.344 4.231 5.661 4.261.156.014 1.422.571 2.815 1.237 2.647 1.265 8.388 2.424 10.246 2.069 1.649-.316 4.976-4.008 5.691-6.316.775-2.503.441-6.193-.95-10.487-.554-1.708-1.129-3.717-1.279-4.464-.449-2.241-3.215-7.661-5.544-10.864-1.202-1.652-2.866-4.081-3.697-5.396-.832-1.315-1.883-2.842-2.335-3.394-3.746-4.566-14.352-12.47-17.444-12.999-1.13-.193-1.906.039-4.005 1.196zM77.79 133.015c-.336.65-.612 1.468-.612 1.817 0 .879 1.875 4.498 2.535 4.892.297.178.704.62.905.982.201.362 1.447 1.879 2.768 3.37a478.185 478.185 0 0 1 3.805 4.346c.771.898 2.5 2.717 3.84 4.042 1.342 1.325 3.67 3.852 5.172 5.615 4.067 4.769 6.23 6.851 12.415 11.954 3.084 2.545 6.194 5.133 6.911 5.753 2.086 1.802 6.623 4.484 7.627 4.51.506.012 1.469.306 2.14.653 3.249 1.681 1.068-1.035-7.134-8.887-3.429-3.283-7.055-6.69-8.056-7.572-3.421-3.01-3.998-3.61-7.511-7.813-1.935-2.314-3.804-4.495-4.154-4.847-2.124-2.134-12.606-13.285-13.9-14.788-2.582-2.999-4.94-5.209-5.557-5.209-.32 0-.858.532-1.194 1.182zm276.772 59.425c-.782.793-1.576 2.241-2.029 3.702-.659 2.123-.692 2.77-.282 5.584.562 3.859 2.049 6.528 4.909 8.808 2.764 2.203 4.851 3.043 7.563 3.043 2.554 0 4.589-1.035 5.536-2.817 1.004-1.886.376-5.723-1.549-9.469-.944-1.838-1.855-3.341-2.024-3.341-.17 0-.61-.638-.98-1.416-.854-1.801-3.952-4.482-5.774-4.996-2.614-.738-3.977-.509-5.37.902zm-340.91 15.427c-2.888 3.024-4.435 10.194-3.754 17.397 1.11 11.751 5.78 16.878 13.305 14.612 3.61-1.087 6.617-4.693 7.552-9.054.38-1.772.319-2.235-.563-4.306-.543-1.276-1.208-3.853-1.478-5.726-.757-5.257-3.188-10.657-5.803-12.886-1.018-.868-3.633-1.54-5.992-1.54-1.594 0-2.017.195-3.266 1.503zm368.938 13.398c-.091.29-.469 2.6-.84 5.135-.372 2.534-.75 5.014-.841 5.51-.146.793-.407.901-2.186.901-1.111 0-2.918-.294-4.016-.653-2.199-.72-4.562-.383-4.562.649 0 .721 3.107 1.91 7.152 2.737l3.147.642-.252 2.019c-.694 5.574-.731 9.633-.1 11.141.746 1.784 1.628 2.24 2.611 1.349.727-.658 1.659-6.624 1.668-10.671.007-2.99.213-3.105 4.132-2.298 1.856.382 4.741.695 6.412.695 2.667 0 3.091-.101 3.483-.835.799-1.492-.383-2.202-4.535-2.724-4.927-.62-8.45-1.311-8.719-1.712-.121-.18-.069-1.907.117-3.838.185-1.931.284-4.594.22-5.916-.116-2.395-.123-2.406-1.421-2.532-.818-.078-1.366.071-1.47.401zm-28.961 15.765c-1.105.775-1.585 3.127-.899 4.409.462.864 2.212 1.791 3.382 1.791.256 0 .86-.368 1.342-.817 1.262-1.177 1.254-4.483-.014-5.372-1.131-.792-2.689-.797-3.811-.011zM1.642 248.369c-2.811 2.349-1.813 8.771 1.476 9.494 2.659.584 3.62-2.472 1.95-6.192-1.931-4.297-2.072-4.432-3.426-3.302zm371.844 38.787c-1.612.67-2.584 2.357-2.148 3.731.558 1.759 2.217 3.232 3.638 3.232 1.123 0 1.471-.222 2.024-1.291.695-1.346.953-4.952.416-5.821-.412-.666-2.124-.601-3.93.149zM355.2 305.627a265.615 265.615 0 0 1-2.616 2.918c-.309.33-2.138 2.584-4.065 5.009-4.724 5.943-6 7.093-10.214 9.204-1.211.607-2.743 1.499-3.404 1.982-3.602 2.635-8.203 4.545-18.023 7.482l-7.809 2.338c-1.432.43-3.505.89-4.606 1.024-3.729.452-6.406 1.13-6.909 1.749-.275.339-.5 1.123-.5 1.742 0 1.104.044 1.126 2.303 1.118 4.227-.015 12.798-1.492 13.917-2.398.22-.179 1.932-.692 3.805-1.14 4.72-1.129 11.692-3.469 14.375-4.823 4.35-2.196 5.06-2.585 6.242-3.415a35.856 35.856 0 0 1 1.877-1.239c5.082-2.979 4.914-2.843 9.235-7.456 1.257-1.343 5.117-6.72 5.117-7.129 0-.221.225-.546.5-.722.651-.417 2.83-3.642 3.329-4.929.519-1.335.483-3.296-.062-3.482-.242-.082-1.363.893-2.492 2.167zM1.892 312.538c-.867 1.62 2.654 14.405 5.412 19.649.753 1.432 1.82 3.506 2.372 4.608 2.373 4.746 8.931 14.643 12.216 18.436 4.9 5.658 16.748 16.08 21.7 19.089.96.583 3.459 2.126 5.551 3.43 2.093 1.302 4.075 2.495 4.406 2.65.33.154 1.141.629 1.802 1.053 2.77 1.78 20.66 10.439 21.568 10.439.275 0 .671.166.88.37.21.203 1.102.486 1.983.628 1.54.248 1.5.205-1.001-1.105-6.682-3.499-6.768-3.549-13.217-7.724-2.093-1.355-4.706-2.978-5.807-3.608-1.102-.63-2.093-1.248-2.203-1.374-.304-.347-2.432-1.701-4.005-2.548-5.079-2.734-12.424-8.364-17.857-13.689a127.07 127.07 0 0 0-2.804-2.665c-2.5-2.273-7.27-7.404-7.767-8.356-.29-.551-1.191-1.813-2.005-2.805-.814-.991-2.545-3.431-3.847-5.422-3.094-4.733-3.21-4.921-4.22-6.799a68.976 68.976 0 0 0-2.145-3.618c-.706-1.109-1.606-3.002-2-4.208-.393-1.205-.868-2.386-1.054-2.623-.543-.692-2.76-6.898-3.71-10.388-.481-1.763-1.015-3.431-1.187-3.707-.503-.805-2.58-.611-3.061.287zm403.898 42.777c-1.515.368-3.501 2.232-4.297 4.033-.597 1.349-.755 2.396-.627 4.156.145 2.017.364 2.552 1.539 3.765.754.778 1.823 1.522 2.377 1.654.554.132 1.253.433 1.553.671.883.698 4.602.522 5.82-.277 1.416-.928 1.845-2.163 1.845-5.316 0-3.848-1.573-6.726-4.49-8.215-1.476-.754-2.186-.844-3.72-.471zm-388.473 9.028c1.265 4.268 10.282 11.925 13.476 11.444.845-.127.711-.347-1.474-2.427-1.322-1.258-2.596-2.291-2.831-2.296-.236-.005-2.277-1.722-4.537-3.815-2.26-2.094-4.287-3.807-4.505-3.807-.224 0-.28.393-.13.901zm244.582 24.166c-1.263.885-1.224 3.307.077 4.711 2.04 2.202 4.946 1.657 5.617-1.053.359-1.453.307-1.584-1.174-2.902-1.702-1.514-3.104-1.749-4.52-.756zm-123.143 31.064c-.787.459-.908 1.637-.287 2.799.292.546.841.775 1.855.775h1.44l-.243-1.501c-.135-.826-.553-1.727-.93-2.004-.815-.596-.925-.6-1.835-.069zm149.471.264c-.796.558-.845.828-.59 3.262.153 1.459.614 4.532 1.025 6.828.41 2.296.658 4.318.549 4.492-.107.175-.865.424-1.683.554-5.559.882-9.584 2.28-10.8 3.75-.722.874-.634 1.101.626 1.624.91.377 1.816.317 4.706-.312 1.969-.429 4.613-.857 5.877-.952 2.667-.201 2.328-.75 3.532 5.702.892 4.779 2.23 8.215 3.198 8.215.307 0 .945-.689 1.417-1.531.856-1.527.857-1.543.15-5.41-.39-2.133-.912-4.758-1.16-5.835-.248-1.076-.399-1.99-.337-2.032.063-.042 1.646-.28 3.518-.529 8.253-1.1 10.421-2.204 9.273-4.724-.537-1.178-2.263-1.291-5.668-.371-1.212.327-3.514.685-5.116.795-3.447.238-3.28.449-4.304-5.407-.367-2.094-.814-4.348-.994-5.009a58.595 58.595 0 0 1-.56-2.256c-.283-1.287-1.489-1.674-2.659-.854zm-60.092 2.093c-1.122 1.068-1.586 1.799-1.418 2.236.137.357.249.782.249.944 0 .613 3.173 2.044 4.533 2.044 1.664 0 2.104-.818 1.688-3.14-.744-4.152-2.234-4.766-5.052-2.084zm-66.851.465c-2.262.903-3.94 3.303-4.447 6.362-.753 4.548 2.349 8.402 6.772 8.413 1.713.004 4.462-1.578 5.692-3.277 2.222-3.07 1.35-7.575-2.027-10.468-1.4-1.199-2.038-1.475-3.359-1.455-.896.014-2.081.206-2.631.425z" fill="#F5F5F5"/></svg>