<svg width="392" height="341" fill="none" xmlns="http://www.w3.org/2000/svg"><path fill-rule="evenodd" clip-rule="evenodd" d="M376.387 46.627H377V6.068c-.188-.048-.375-.096-.562-.096-1.413 0-2.8-.385-4.188-1.155-.487-.288-.975-.288-1.475-.288-1.762 0-3.5-.626-5.2-2.598-1.013-1.203-2.05-1.732-3.125-1.492-.446.113-.9-.005-1.352-.122-.322-.083-.644-.166-.96-.166l-.602.016c-1.202.03-2.41.06-3.598.513-1.126.433-2.25.48-3.363.385-.35-.024-.703-.06-1.056-.097a32.078 32.078 0 0 0-1.057-.096 18.711 18.711 0 0 0-1.549-.01c-.259.005-.517.01-.775.01-.37 0-.739-.04-1.108-.082-1.18-.13-2.356-.261-3.517.948-.201.193-.426.193-.625 0-.557-.497-1.114-.294-1.665-.094a5.68 5.68 0 0 1-.423.142c-.488.145-.988.193-1.475 0-1.771-.604-3.532-.202-5.292.2l-.608.137c-1.192.267-2.383.633-3.574.998-2.243.688-4.485 1.376-6.739 1.408-.209 0-.427.084-.64.166a6.368 6.368 0 0 1-.197.074 55.08 55.08 0 0 0-.817.244h-.001a25.21 25.21 0 0 1-1.707.478c-.184.036-.368.062-.551.088-.799.112-1.591.223-2.374 1.163-.325.385-.7.433-1.05.337-1.353-.476-2.709-.446-4.065-.416-1.388.03-2.775.06-4.16-.45-1.641.54-3.282.183-4.915-.173h-.001a58.512 58.512 0 0 0-.771-.164c-2.575-.53-4.501-1.3-6.663-3.609-.9-.962-1.775-1.54-2.7-1.443-.157.028-.319-.008-.48-.043a1.693 1.693 0 0 0-.357-.053l-.074-.004c-1.95-.095-3.889-.19-5.839-.237-.212 0-.438 0-.625.289-.625.77-1.25.53-1.875-.048-.628-.604-1.266-.28-1.887.037-.071.036-.142.073-.213.107-.538.274-1.077.428-1.617.583-.791.226-1.583.453-2.37 1.053-.762.578-1.561.518-2.349.46-.13-.01-.26-.02-.389-.027A45.76 45.76 0 0 1 270 2.556a8.477 8.477 0 0 0-.468-.029c-.824-.036-1.656-.072-2.445-1.366-.25-.433-.549-.433-.837-.433-.49-.034-.98-.233-1.47-.431-.21-.085-.42-.17-.63-.243-.507-.16-1.02.063-1.535.288-.259.112-.518.225-.778.29a3.887 3.887 0 0 0-.383.114h-.001c-.292.097-.582.193-.878.126-1.716-.382-3.428-.049-5.141.285-1.518.296-3.037.592-4.559.389-.891.495-1.781.417-2.672.34a15.101 15.101 0 0 0-.703-.052c-.322-.031-.645.063-.97.158-.168.05-.336.099-.505.131-.465.096-.932.24-1.399.384-.938.289-1.879.579-2.814.482-1.79-.182-3.572.198-5.356.578-1.517.324-3.034.647-4.556.625-.28 0-.56.123-.84.246-.07.031-.14.062-.21.09a49.92 49.92 0 0 0-.595.22c-1.412.526-2.817 1.05-4.243.502-.254-.105-.509-.006-.763.093-.096.037-.191.074-.287.1-.32.07-.641.144-.962.217-1.645.376-3.296.753-4.938.793-.129 0-.259-.007-.39-.015-.436-.026-.874-.051-1.297.208-1.412.866-2.812.577-4.212 0-.425-.193-.838-.24-1.263 0-.412.24-.838.24-1.263.24-.469.046-.94.058-1.411.07-1.009.025-2.02.05-3.026.411-.826.3-1.657.399-2.487.498-.638.076-1.277.153-1.913.32-2.12.574-4.251.702-6.382.831l-.581.035c-.471.027-.941.062-1.412.097-2.063.154-4.121.308-6.187-.241a1.657 1.657 0 0 0-.838-.048c-2.25.577-4.5.433-6.75.24-.838-.096-1.687-.048-2.525.29-1.048.383-2.109.432-3.157.48h-.006c-.445.021-.891.026-1.337.031-1.591.018-3.183.035-4.775.787-1.529.755-3.073 1.184-4.614 1.612-.425.118-.85.236-1.274.36a31.578 31.578 0 0 1-3.575.77c-.712.145-1.375.53-2 2.117-.337.867-.774 1.251-1.187 1.54-.688.433-1.388.77-2.087.866-.387.068-.774.132-1.161.196-1.791.296-3.586.592-5.365 1.344-2.375 1.01-4.762 1.876-7.149 1.732-.174 0-.352.095-.528.19a2.28 2.28 0 0 1-.31.147c-1.337.577-2.687.866-4 0-1.962-1.251-3.912-1.444-5.888-1.588a14.402 14.402 0 0 0-3.799.192c-.402.073-.806.058-1.21.042-.93-.035-1.863-.07-2.778.969-.1.115-.216.108-.335.1-.03-.002-.06-.004-.09-.004-.633-.032-1.267-.037-1.9-.043-1.267-.01-2.533-.021-3.8-.246-3.8-.673-7.6-.818-11.4-.529-2.151.151-4.302.63-6.453 1.107-.586.13-1.173.26-1.76.384-2.715.595-5.44.732-8.159.87-.585.03-1.17.059-1.753.093-2.038.096-4.063.096-6.1.096-.245 0-.49-.093-.734-.184-.39-.148-.776-.294-1.154-.057-.956.585-1.912.432-2.864.28-.38-.06-.758-.122-1.136-.135-1.086-.047-2.17-.407-3.253-.768-1.16-.386-2.32-.772-3.484-.772-.54.018-1.082-.036-1.623-.09-.934-.092-1.868-.184-2.802.09-.563.145-1.125 0-1.688-.144-2.037-.53-4.087-.481-6.112.048-2.738.722-5.475 1.058-8.213.289-.064-.015-.129-.032-.194-.049-.362-.094-.729-.189-1.068.097-.913.866-1.8.48-2.712-.145-.393-.274-.798-.304-1.197-.333-.16-.012-.32-.024-.479-.052a2.282 2.282 0 0 0-.424-.042c-.282-.011-.563-.022-.838-.246-2.013-1.78-4.038-1.732-6.075-1.444a8.885 8.885 0 0 1-.971.096c-.519.032-1.039.064-1.554.241-.375.144-.675-.192-1-.77a2.56 2.56 0 0 0-.8-.866 5.308 5.308 0 0 0-.703-.403 10.73 10.73 0 0 1-.335-.174 27.376 27.376 0 0 1-1.363-.747c-1.281-.732-2.564-1.466-3.874-1.466-1.106 0-2.212-.081-3.319-.162-.369-.028-.737-.055-1.106-.079-.988-.096-1.963-.24-2.938-.962-.825-.625-1.675-.77-2.525-.337-.438.217-.877.082-1.316-.052l-.146-.044c-.794-.31-1.602-.373-2.408-.437a19.993 19.993 0 0 1-.967-.092c-1.104 1.159-2.238 1.054-3.367.95a18.713 18.713 0 0 0-.408-.036c-.563-.048-1.087.337-1.637 1.01l-.001.001c-.125.144-.25.288-.362.432V31H2l-.982 275.001H1v9.477c-.1.543-.109 1.088-.109 1.635-.012.703-.013 1.406-.014 2.108-.005 2.811-.01 5.622-.723 8.433-.123.446-.154.892-.154 1.348h4.57c.394.087.787.191 1.18.313.487.161.975.161 1.475.161 1.763 0 3.5.349 5.2 1.449 1.012.67 2.05.965 3.125.831.445-.063.9.003 1.352.068.322.047.643.093.96.093.2-.004.401-.006.602-.009 1.202-.017 2.41-.033 3.599-.286 1.125-.241 2.25-.268 3.362-.215.35.014.703.034 1.056.054.353.02.706.04 1.056.054.517.018 1.034.012 1.55.006.259-.003.517-.006.776-.006.368 0 .737.023 1.106.045h.001c1.18.073 2.356.146 3.517-.528a.649.649 0 0 1 .625 0c.557.277 1.114.164 1.665.052.142-.028.282-.057.423-.079.487-.08.987-.107 1.475 0 1.771.337 3.532.113 5.292-.111h.001l.607-.077a79.858 79.858 0 0 0 3.572-.556h.002c2.243-.384 4.485-.768 6.739-.785.21 0 .427-.047.64-.093.066-.014.132-.029.197-.041.271-.044.544-.09.818-.137h.005a40.982 40.982 0 0 1 1.702-.266c.184-.02.367-.034.55-.049.8-.062 1.592-.124 2.375-.648.325-.215.7-.242 1.05-.188 1.353.265 2.71.248 4.065.232 1.388-.017 2.775-.034 4.16.251 1.641-.301 3.282-.102 4.915.096l.773.092c2.575.295 4.5.724 6.662 2.012.9.536 1.775.858 2.7.805a2.16 2.16 0 0 1 .48.024c.12.014.24.029.358.029l.066.002c1.953.053 3.893.106 5.846.132.213 0 .438 0 .625-.161.625-.429 1.25-.295 1.875.027.628.337 1.266.156 1.887-.021l.096-.027a5.41 5.41 0 0 1 .117-.032c.537-.153 1.077-.239 1.617-.325.791-.126 1.583-.253 2.371-.587.761-.323 1.56-.289 2.348-.257l.002.001h.003l.384.014a80.88 80.88 0 0 1 4.425.215 18.366 18.366 0 0 0 .468.016c.824.02 1.656.04 2.444.762.25.241.551.241.838.241.49.019.98.13 1.47.24v.001c.21.047.42.095.63.135.507.089 1.02-.035 1.535-.16.259-.063.518-.126.777-.162.129-.016.257-.04.384-.064.293-.054.583-.108.879-.07 1.715.213 3.427.027 5.14-.159h.001c1.518-.165 3.037-.33 4.559-.217.891-.276 1.781-.233 2.672-.189.234.011.469.023.703.028.322.018.645-.035.97-.088.167-.027.336-.055.505-.073.465-.053.932-.133 1.399-.214.939-.161 1.879-.322 2.814-.269 1.79.102 3.572-.11 5.356-.322h.001c1.516-.18 3.033-.361 4.555-.348.28 0 .56-.069.84-.138h.002l.208-.05.595-.122c1.412-.294 2.818-.586 4.243-.281.254.059.509.004.763-.051l.097-.021c.063-.013.126-.025.19-.035l.295-.037.667-.084c1.645-.21 3.296-.42 4.938-.442.129 0 .258.004.389.008h.001c.436.015.874.029 1.297-.116 1.413-.483 2.813-.322 4.212 0 .425.108.838.134 1.263 0 .413-.134.838-.134 1.263-.134.469-.025.94-.032 1.411-.039 1.009-.014 2.021-.028 3.026-.229.826-.167 1.657-.222 2.487-.278a24.151 24.151 0 0 0 1.913-.178c2.12-.32 4.251-.392 6.382-.463h.002l.324-.011.255-.009c.469-.015.937-.034 1.405-.054h.006c2.064-.086 4.122-.171 6.188.134.276.054.563.054.838.027 2.25-.322 4.5-.241 6.75-.134.838.054 1.688.027 2.525-.161 1.048-.214 2.108-.241 3.156-.268h.007a44.546 44.546 0 0 1 1.337-.017c1.591-.01 3.183-.02 4.775-.439 1.528-.421 3.072-.66 4.613-.899h.001c.425-.066.849-.132 1.274-.201a53.67 53.67 0 0 1 3.575-.429c.712-.081 1.375-.296 2-1.181.337-.483.775-.697 1.187-.858.688-.242 1.388-.43 2.087-.483.385-.038.77-.074 1.155-.109l.006-.001c1.791-.164 3.586-.33 5.365-.749 2.375-.563 4.762-1.046 7.149-.966.174 0 .352-.053.528-.106.104-.031.208-.062.31-.081 1.338-.322 2.687-.483 4 0 1.963.697 3.913.804 5.888.885 1.262.054 2.537.027 3.799-.107.402-.041.806-.032 1.21-.024.93.02 1.863.04 2.778-.54.1-.064.216-.06.335-.056l.09.003c.633.017 1.267.02 1.9.023 1.267.006 2.533.012 3.8.138 3.8.375 7.6.456 11.4.295 2.151-.085 4.301-.351 6.452-.618.587-.072 1.174-.145 1.76-.214 2.716-.331 5.44-.408 8.159-.485h.001a338.55 338.55 0 0 0 1.753-.052c2.038-.053 4.063-.053 6.1-.053.245 0 .49.051.734.103.39.082.777.163 1.153.031.957-.326 1.913-.241 2.865-.156.379.034.758.068 1.135.075 1.087.026 2.17.227 3.253.428h.001c1.16.216 2.32.431 3.484.431.541-.01 1.082.02 1.623.05.934.051 1.868.103 2.802-.05.563-.081 1.125 0 1.687.08 2.038.295 4.088.269 6.113-.026 2.737-.403 5.475-.591 8.213-.161.061.007.122.016.184.025l.004.001h.003l.003.001c.363.052.729.105 1.068-.054.912-.483 1.8-.269 2.712.08.393.153.797.17 1.197.186.161.007.321.013.479.029.141.018.282.021.423.024h.001c.282.006.563.012.838.137 2.012.992 4.037.966 6.075.805.322-.031.647-.042.971-.054.519-.017 1.039-.035 1.554-.134.375-.081.675.107 1 .429.25.242.525.376.8.483.23.091.465.158.703.225l.081.023c.084.024.169.048.253.074.456.126.91.271 1.364.416 1.281.409 2.564.818 3.874.818.182 0 .364.001.546.004-.549 2.191.114 4.364.914 6.546l1.612-6.469.247.01.612.024a98.028 98.028 0 0 1-.202 3.552l-.035.515c-.015.189-.037.379-.058.568-.058.504-.115 1.009-.054 1.513.037.383.199.766.36 1.149.081.192.161.384.227.575.083-.005.174-.007.264-.01.091-.002.182-.005.266-.01.167-1.174.342-2.348.517-3.522.174-1.174.349-2.349.516-3.523.07 0 .14-.002.21-.005.069-.002.139-.005.209-.005.195.129.391.248.67.426.284-.197.525-.395.731-.592a3.706 3.706 0 0 0 2.101.171c.067.472-.024.945-.117 1.424-.148.764-.299 1.544.189 2.356l.519-.258.514-.257c.363 1.095.214 2.16.068 3.207-.168 1.208-.333 2.392.295 3.571l.076-.134c.284-.501.568-1.002.594-1.511.049-.824.06-1.645.072-2.467.014-1.056.029-2.112.123-3.171.078-.873.177-1.746.29-2.618.492.053.987.075 1.482.097.311.014.622.027.933.049a37.415 37.415 0 0 1-.303 2.64c-.075.499-.032 1 .012 1.5.07.811.14 1.622-.292 2.424-.094.148.004.31.103.473.047.077.094.154.121.231.865-1.397 1.34-2.795 1.48-4.202.069-.663.064-1.327.06-1.992a23.423 23.423 0 0 1 .022-1.522 5.68 5.68 0 0 1 1.138-.112l.003.744c.005.829.009 1.659-.023 2.486-.013.383-.082.769-.151 1.156-.078.433-.156.867-.156 1.301 0 .29.13.584.259.877.069.157.139.315.188.471.084.277.139.565.111.842a2.47 2.47 0 0 1-.151.317c-.164.317-.39.753-.295.793 1.238.605.66 1.22.082 1.835l-.026.028-.043.045c-.141.148-.332.347-.181.401.942.313.863.686.784 1.059-.031.147-.062.294-.03.437l.335 1.536.335 1.536h.754v-3.032h.726c.028.327.049.651.07.976.021.324.042.649.07.976.095-.005.186-.007.273-.008.117-.002.229-.002.341-.002v-.664c0-.172-.024-.346-.048-.522-.054-.39-.108-.783.104-1.153.412-.74.255-1.474.097-2.212a19.796 19.796 0 0 1-.069-.334 7.66 7.66 0 0 0-.085-.41c-.121-.534-.243-1.073.113-1.562.573-.831.554-1.655.535-2.482-.006-.22-.011-.439-.005-.659.009-.16-.02-.326-.049-.493-.065-.373-.13-.748.217-1.063.982-.882.8-1.776.618-2.673-.15-.734-.299-1.47.191-2.202.519-.772.468-1.589.416-2.404-.02-.326-.041-.652-.025-.975.012-.151-.031-.304-.075-.457-.058-.207-.117-.413-.036-.613.954-2.626 1.035-5.259 1.116-7.893.017-.526.033-1.053.056-1.58l.011-.272c.03-.735.061-1.481-.262-2.195-.223-.505-.196-.951.028-1.447.754-1.625 1.089-3.25.837-4.905-.103-.746.053-1.497.209-2.25.055-.267.111-.534.154-.802.042-.244.098-.487.154-.73.096-.415.192-.828.209-1.241.026-.491-.006-.983-.039-1.476-.038-.594-.077-1.189-.016-1.784.176-1.707.389-3.41.602-5.113.158-1.262.316-2.524.459-3.785.139-1.234.244-2.467.349-3.701.104-1.234.209-2.467.349-3.701.474-4.32.949-8.631 1.563-12.941.11-.79.12-1.579.129-2.369.017-1.41.034-2.82.625-4.23.411-.999.438-2.013.465-3.027.012-.435.024-.87.066-1.303 0-.033-.004-.067-.007-.1-.006-.066-.012-.132.007-.198.027-.099.111-.188.195-.287.223 0 .419.01.642.01.047.191.118.383.189.575.143.383.286.766.23 1.149-.295 2.18-.637 4.354-.978 6.527-.112.711-.224 1.422-.334 2.133a5.36 5.36 0 0 1-.188.727c-.086.283-.173.566-.203.849-.042.361-.028.721-.014 1.08.014.359.028.718-.014 1.08-.059.457-.142.913-.225 1.368-.115.629-.229 1.255-.278 1.882-.039.563-.023 1.124-.006 1.685.019.623.037 1.246-.022 1.872-.063.687-.199 1.375-.335 2.064-.103.523-.207 1.047-.279 1.573-.112.961-.139 1.912-.167 2.873-.019.674-.013 1.343-.007 2.013.003.336.007.672.007 1.009.474-.109.53-.228.558-.346.19-1.606.299-3.213.409-4.821.164-2.41.328-4.821.764-7.228.352-1.958.512-3.92.672-5.883.069-.84.138-1.68.221-2.52.054-.466.087-.934.12-1.403.053-.746.106-1.495.243-2.244.112-.574.307-1.147.503-1.719.195-.572.391-1.144.502-1.719.442-2.339.774-4.688 1.105-7.027l.012-.087c.419-3.032.81-6.055 1.173-9.087.035-.264.016-.53-.004-.796-.026-.361-.053-.722.06-1.076 1.058-3.487 1.275-6.997 1.492-10.503l.071-1.14c.084-1.391.224-2.778.364-4.165.139-1.38.279-2.76.362-4.139.196-3.557.335-7.104.391-10.662.045-3.09.018-6.174-.009-9.262l-.019-2.321c-.028-3.141-.056-6.272-.139-9.403a566.365 566.365 0 0 0-.152-3.889c-.08-1.959-.161-3.92-.211-5.881-.013-.507.052-1.014.118-1.52.075-.582.15-1.163.105-1.74-.078-1.024-.241-2.048-.405-3.072a47.018 47.018 0 0 1-.349-2.458c-.084-.782-.035-1.567.014-2.353.049-.787.098-1.575.014-2.363-.115-1.061-.037-2.122.042-3.183.054-.742.109-1.485.098-2.227-.013-.778-.098-1.553-.182-2.329-.098-.904-.196-1.808-.181-2.715.015-1.442.093-2.882.171-4.322.069-1.26.138-2.521.164-3.783.028-1.843-.028-3.686-.252-5.529-.047-.417-.038-.836-.03-1.255.022-1.058.044-2.119-.835-3.155-.168-.208-.251-.515.056-.674.717-.374.624-.76.531-1.149-.023-.096-.046-.192-.057-.287a6.292 6.292 0 0 0-.138-.606c-.084-.323-.169-.647-.169-.97-.021-1.139-.022-2.279-.023-3.418-.001-1.824-.003-3.647-.088-5.47-.078-1.711-.276-3.427-.474-5.141-.088-.757-.175-1.514-.252-2.271a20.521 20.521 0 0 1-.077-1.399c-.047-1.492-.095-2.979-1.18-4.467-.713-.969-.777-2-.839-3.018a27.32 27.32 0 0 0-.026-.41c-.224-3.865-1.006-7.7-1.983-11.544a2.497 2.497 0 0 0-.251-.535l-.028-.05c-.099-.206-.218-.412-.337-.618-.219-.379-.438-.757-.529-1.135a90.665 90.665 0 0 1-1.061-5.311c-.145-.904-.281-1.808-.417-2.711-.205-1.356-.409-2.712-.644-4.067-.044-.272-.15-.544-.258-.818-.095-.245-.191-.49-.244-.738-.14-.708-.258-1.414-.377-2.12-.119-.706-.237-1.412-.377-2.12-.062-.305-.147-.608-.231-.91-.105-.377-.21-.753-.272-1.132-.048-.323-.08-.648-.113-.973-.043-.433-.086-.866-.166-1.296-.101-.52-.23-1.038-.358-1.555-.19-.765-.38-1.527-.479-2.29-.109-.725-.15-1.453-.191-2.181-.053-.951-.106-1.903-.312-2.852-.218-.982-.46-1.962-.702-2.943-.661-2.675-1.322-5.351-1.485-8.042zm10.619 192.533c.642.615-.084 7.362-.977 8.591-.107-.197-.228-.369-.337-.526-.204-.293-.37-.53-.333-.762.307-2.239.726-4.469 1.145-6.698.017-.111.13-.221.26-.348.081-.078.168-.162.242-.257zm2.401-18.833l-.142.119c-.314.26-.628.52-.723.789-.101.267-.02.542.06.817.054.184.107.368.107.551.008.103-.045.209-.098.315-.145.292-.295.593.768.884.027-1.207.028-2.343.028-3.475zm-14.993 112.748c.195 0 .363-.009.558-.009.406.426.113.843-.181 1.261-.171.242-.342.486-.377.732v-1.984zm10.825-83.893c.226-.238.448-.472.204-.708 1.005.664 1.005.853.083 1.754-.928-.369-.603-.712-.287-1.046zm2.772-16.502h.587a66.452 66.452 0 0 0-.475 2.289c-.754-.773-.893-1.546-.112-2.289zm1.927-22.889c.041-.165.184-.329.327-.493.333-.381.662-.757-.327-1.132v1.625zm-2.094 26.515h-.642c.055-.227.139-.445.223-.663a6.373 6.373 0 0 0 .419.01v.653zm1.145-10.701c-1.117.277-.978.486 0 .813v-.813zm.572-7.362c.07.012.14.025.209.039-.055.248-.111.506-.167.753h-.251v-.832c.069.015.139.027.209.04z" fill="#6AFDEF"/></svg>